<svg width="139" height="160" viewBox="0 0 139 160" fill="none" xmlns="http://www.w3.org/2000/svg">
<path fill-rule="evenodd" clip-rule="evenodd" d="M89.1572 79.9972L89.1825 80.195L89.2576 80.3943L89.3814 80.5966L89.5532 80.8036L89.7728 81.0165L90.04 81.2369L90.3549 81.4664L90.7179 81.7064L91.1297 81.9584L91.5909 82.2242L92.1025 82.5054L92.6655 82.8038L93.2811 83.121L93.9504 83.4592L94.6747 83.8201L95.4553 84.2057L96.2935 84.6183L97.1904 85.0599L98.1471 85.5327L99.1644 86.039L100.243 86.5809L101.383 87.1608L102.585 87.7807L103.849 88.4428L105.173 89.1491L106.555 89.9014L107.994 90.7013L109.487 91.5501L111.03 92.4489L112.618 93.3982L114.245 94.3979L115.904 95.4478L117.588 96.5464L119.287 97.6921L120.992 98.8821L122.69 100.113L124.37 101.38L126.018 102.678L127.62 104.001L129.161 105.341L130.626 106.69L132 108.04L133.266 109.38L134.41 110.7L135.417 111.989L136.274 113.237L136.97 114.431L137.493 115.562L137.835 116.619L137.991 117.59L137.955 118.469L137.727 119.246L137.307 119.914L136.699 120.469L135.91 120.906L134.947 121.223L133.82 121.419L132.543 121.496L131.129 121.456L129.592 121.302L127.949 121.041L126.215 120.678L124.408 120.221L122.544 119.677L120.638 119.057L118.707 118.368L116.764 117.619L114.823 116.821L112.896 115.983L110.994 115.112L109.126 114.218L107.302 113.309L105.528 112.392L103.809 111.473L102.151 110.559L100.557 109.656L99.0302 108.768L97.5713 107.899L96.1816 107.053L94.8613 106.234L93.6099 105.444L92.4264 104.685L91.3095 103.958L90.2575 103.265L89.2685 102.608L88.3403 101.986L87.4706 101.4L86.657 100.85L85.8971 100.338L85.1884 99.8616L84.5286 99.422L83.9153 99.0189L83.3462 98.6521L82.8191 98.3216L82.3319 98.0271L81.8826 97.7689L81.4694 97.5468L81.0904 97.3611L80.7442 97.2122L80.4292 97.1004L80.1442 97.0265L79.8878 96.9914L79.6591 96.9962L79.4572 97.0423L79.2813 97.1314L79.1303 97.2646L79.0023 97.4419L78.8955 97.6632L78.8085 97.9286L78.7397 98.2387L78.6879 98.5942L78.6519 98.996L78.6306 99.4453L78.6229 99.9434L78.6278 100.492L78.6444 101.092L78.6717 101.747L78.7085 102.457L78.7541 103.225L78.8072 104.052L78.8667 104.942L78.9315 105.896L79.0003 106.916L79.0717 108.004L79.1441 109.162L79.216 110.392L79.2855 111.694L79.3508 113.071L79.4098 114.522L79.4602 116.048L79.4997 117.648L79.5258 119.32L79.5358 121.063L79.5268 122.873L79.496 124.746L79.4405 126.678L79.3572 128.66L79.2433 130.686L79.0957 132.746L78.9118 134.829L78.689 136.925L78.425 139.018L78.1179 141.095L77.7661 143.139L77.3687 145.135L76.9252 147.064L76.4357 148.908L75.9013 150.648L75.3234 152.268L74.7044 153.748L74.0474 155.073L73.3561 156.226L72.6351 157.193L71.8894 157.963L71.1245 158.525L70.3464 158.872L69.5615 159L68.776 158.907L67.9964 158.594L67.229 158.066L66.4798 157.329L65.7545 156.393L65.0582 155.268L64.3955 153.97L63.7702 152.513L63.1856 150.915L62.6441 149.192L62.1474 147.363L61.6965 145.447L61.2918 143.461L60.9328 141.423L60.6186 139.35L60.3479 137.259L60.1187 135.163L59.9287 133.076L59.7756 131.012L59.6565 128.98L59.5685 126.99L59.5088 125.05L59.4743 123.167L59.462 121.347L59.4691 119.593L59.4928 117.909L59.5304 116.298L59.5792 114.76L59.637 113.297L59.7014 111.909L59.7704 110.594L59.8421 109.353L59.9145 108.183L59.9862 107.084L60.0554 106.054L60.121 105.089L60.1814 104.19L60.2356 103.352L60.2824 102.575L60.3208 101.856L60.3496 101.193L60.368 100.584L60.3748 100.027L60.3692 99.5213L60.3501 99.0643L60.3165 98.655L60.2673 98.2922L60.2014 97.975L60.1173 97.7025L60.0138 97.4742L59.8893 97.2899L59.742 97.1496L59.5702 97.0535L59.3725 97.0007L59.1481 96.9895L58.8962 97.0183L58.6158 97.0861L58.3057 97.1918L57.9645 97.3349L57.5909 97.5148L57.1833 97.7311L56.7398 97.9836L56.2588 98.2722L55.7382 98.597L55.1759 98.958L54.5698 99.3554L53.9176 99.7891L53.2169 100.259L52.4653 100.766L51.6604 101.31L50.7998 101.89L49.881 102.506L48.9018 103.158L47.86 103.845L46.7536 104.567L45.5808 105.321L44.3403 106.106L43.031 106.921L41.6523 107.763L40.2045 108.628L38.6881 109.513L37.1047 110.414L35.4568 111.327L33.7477 112.245L31.9819 113.163L30.1651 114.074L28.304 114.971L26.4068 115.846L24.483 116.69L22.5433 117.495L20.5998 118.252L18.6656 118.951L16.755 119.583L14.8831 120.14L13.0659 120.611L11.3196 120.99L9.66092 121.268L8.10609 121.439L6.67107 121.498L5.37097 121.439L4.21977 121.262L3.22995 120.964L2.41219 120.546L1.77516 120.01L1.32523 119.359L1.06636 118.6L1 117.737L1.12507 116.779L1.438 115.736L1.93286 114.616L2.60151 113.431L3.43388 112.191L4.41819 110.907L5.54126 109.591L6.78887 108.254L8.14604 106.905L9.59738 105.555L11.1274 104.213L12.7207 102.887L14.3624 101.585L16.0381 100.312L17.7345 99.0755L19.4389 97.8788L21.1398 96.7258L22.8269 95.6195L24.4908 94.5618L26.1234 93.554L27.7178 92.5967L29.268 91.6899L30.7691 90.8332L32.217 90.0255L33.6088 89.2657L34.942 88.5523L36.2151 87.8832L37.427 87.2567L38.5772 86.6707L39.6656 86.1229L40.6927 85.6111L41.6589 85.1331L42.5653 84.6867L43.4127 84.2696L44.2024 83.8798L44.9357 83.5151L45.6137 83.1734L46.2377 82.853L46.809 82.5517L47.3287 82.2679L47.7979 81.9998L48.2174 81.7456L48.5882 81.5039L48.9108 81.2729L49.1855 81.0511L49.4127 80.8371L49.5921 80.6293L49.7236 80.4263L49.8065 80.2266L49.8398 80.0286L49.8226 79.831L49.7553 79.632L49.6393 79.4302L49.475 79.2241L49.263 79.0123L49.0035 78.7931L48.6962 78.5652L48.3408 78.327L47.9369 78.077L47.4836 77.8135L46.9801 77.5349L46.4253 77.2394L45.8182 76.9252L45.1576 76.5905L44.4421 76.2334L43.6705 75.8518L42.8416 75.4436L41.9541 75.0068L41.007 74.5391L39.9994 74.0383L38.9306 73.5023L37.8 72.9286L36.6078 72.3152L35.3541 71.66L34.0399 70.9608L32.6666 70.216L31.2362 69.4237L29.7517 68.5828L28.2166 67.692L26.6357 66.7508L25.0146 65.759L23.3598 64.7171L21.6792 63.6261L19.9816 62.4878L18.2771 61.3046L16.5769 60.0801L14.8931 58.8184L13.2391 57.5249L11.6287 56.2056L10.0769 54.8678L8.59886 53.5194L7.21001 52.1693L5.92585 50.8271L4.76152 49.5032L3.73153 48.2082L2.84941 46.9531L2.12743 45.7493L1.57623 44.6076L1.20459 43.5387L1.01918 42.5527L1.02433 41.6589L1.22191 40.8654L1.6113 40.1793L2.18931 39.6063L2.95034 39.1503L3.88642 38.814L4.98749 38.5983L6.24161 38.5025L7.63525 38.5244L9.15361 38.6601L10.781 38.9048L12.5012 39.2521L14.2976 39.6948L16.1538 40.2251L18.0537 40.8341L19.982 41.5129L21.9241 42.2523L23.8663 43.0429L25.7964 43.8757L27.7032 44.7417L29.5767 45.6324L31.4085 46.5398L33.1912 47.4564L34.9189 48.3753L36.5867 49.2903L38.1909 50.1957L39.7288 51.0866L41.1986 51.9586L42.5994 52.808L43.9307 53.6315L45.1931 54.4266L46.3873 55.191L47.5147 55.923L48.5769 56.6211L49.5758 57.2844L50.5135 57.9121L51.3924 58.5037L52.2148 59.0589L52.9831 59.5775L53.6997 60.0594L54.3672 60.5048L54.9877 60.9137L55.5637 61.2863L56.0974 61.6226L56.5908 61.9228L57.046 62.1868L57.4649 62.4147L57.8491 62.6062L58.2005 62.761L58.5203 62.8787L58.8101 62.9587L59.0709 63L59.3039 63.0017L59.5101 62.9623L59.6901 62.8802L59.8449 62.7539L59.9765 62.5836L60.0865 62.3694L60.1766 62.111L60.2482 61.8081L60.3026 61.4599L60.3411 61.0655L60.3646 60.6239L60.3744 60.1336L60.3714 59.5933L60.3566 59.0012L60.331 58.3555L60.2956 57.6545L60.2514 56.896L60.1994 56.078L60.1408 55.1984L60.0768 54.255L60.0085 53.2457L59.9375 52.1686L59.8651 51.0218L59.7931 49.8035L59.723 48.5125L59.6569 47.1477L59.5968 45.7083L59.5448 44.1944L59.5034 42.6063L59.475 40.9454L59.4623 39.2136L59.4681 37.4139L59.4952 35.5504L59.5466 33.628L59.6252 31.6533L59.7341 29.6337L59.8761 27.5785L60.054 25.4978L60.2705 23.4037L60.5278 21.3091L60.8279 19.2286L61.1725 17.1778L61.5626 15.1734L61.9988 13.2328L62.481 11.3741L63.0083 9.6156L63.5794 7.97556L64.1921 6.47181L64.8433 5.12141L65.5293 3.94021L66.2459 2.94253L66.9881 2.14076L67.7503 1.54508L68.5267 1.16317L69.311 1L70.0968 1.05772L70.8778 1.33556L71.6476 1.8299L72.4 2.53432L73.1295 3.43982L73.8307 4.53501L74.4991 5.80646L75.1305 7.239L75.7218 8.8161L76.2703 10.5203L76.7742 12.3334L77.2324 14.2371L77.6445 16.2133L78.0107 18.244L78.332 20.3124L78.6095 22.4021L78.8452 24.4982L79.0412 26.5868L79.2001 28.6556L79.3244 30.6934L79.4171 32.6906L79.4812 34.6388L79.5195 36.5312L79.5351 38.362L79.5309 40.1266L79.5096 41.8217L79.4741 43.4448L79.4269 44.9943L79.3704 46.4693L79.3069 47.8697L79.2384 49.1959L79.1671 50.4487L79.0947 51.6294L79.0228 52.7396L78.9531 53.7811L78.8868 54.7557L78.8255 55.6655L78.7702 56.5127L78.7222 57.2994L78.6824 58.0276L78.652 58.6995L78.6319 59.3169L78.6232 59.8818L78.6267 60.3958L78.6436 60.8605L78.6748 61.2773L78.7214 61.6474L78.7846 61.9719L78.8657 62.2515L78.966 62.4867L79.0871 62.678L79.2306 62.8253L79.3984 62.9285L79.592 62.9881L79.812 63.0058L80.0595 62.9833L80.3353 62.9217L80.6406 62.8219L80.9767 62.6847L81.345 62.5107L81.7471 62.3002L82.1847 62.0534L82.6597 61.7705L83.1738 61.4515L83.7293 61.0963L84.3283 60.7047L84.9731 60.2768L85.6659 59.8123L86.4092 59.3112L87.2054 58.7736L88.057 58.1993L88.9664 57.5888L89.9358 56.9425L90.9675 56.2608L92.0635 55.5449L93.2256 54.7958L94.4552 54.0151L95.7536 53.2049L97.1211 52.3675L98.558 51.5058L100.064 50.6235L101.636 49.7244L103.274 48.8133L104.974 47.8956L106.731 46.977L108.54 46.0644L110.395 45.1647L112.287 44.2858L114.207 43.4361L116.145 42.6242L118.089 41.8592L120.025 41.1503L121.941 40.5068L123.82 39.9378L125.647 39.4522L127.405 39.0583L129.079 38.7638L130.652 38.5753L132.107 38.4985L133.429 38.5377L134.605 38.6959L135.621 38.9746L136.467 39.3736L137.133 39.8911L137.614 40.5238L137.903 41.2668L138 42.1136L137.905 43.0566L137.622 44.0871L137.156 45.1954L136.514 46.3709L135.707 47.6028L134.746 48.8801L133.644 50.1916L132.415 51.5264L131.075 52.8739L129.637 54.2243L128.119 55.5683L126.534 56.8974L124.899 58.204L123.228 59.4816L121.534 60.7245L119.83 61.9279L118.128 63.088L116.438 64.2019L114.77 65.2674L113.132 66.2832L111.531 67.2486L109.973 68.1634L108.464 69.0281L107.008 69.8435L105.607 70.6108L104.264 71.3315L102.981 72.0075L101.76 72.6406L100.6 73.233L99.5013 73.7867L98.4645 74.3041L97.4886 74.7873L96.5728 75.2386L95.716 75.6602L94.9172 76.0543L94.1751 76.4228L93.4884 76.768L92.8558 77.0917L92.2762 77.3959L91.7484 77.6823L91.2712 77.9529L90.8438 78.2091L90.4653 78.4528L90.1351 78.6854L89.8527 78.9085L89.618 79.1237L89.4309 79.3324L89.2918 79.536L89.2011 79.7362L89.1598 79.9343L89.1572 79.9972Z" fill="#8CD790"/>
<path d="M89.1572 79.9972V79.9972ZM89.1572 79.9972L89.1825 80.195L89.2576 80.3943L89.3814 80.5967L89.5532 80.8036L89.7728 81.0165L90.04 81.2369L90.3549 81.4664L90.7179 81.7064L91.1297 81.9584L91.5909 82.2242L92.1025 82.5054L92.6655 82.8038L93.2811 83.121L93.9504 83.4592L94.6747 83.8201L95.4553 84.2057L96.2935 84.6183L97.1904 85.0599L98.1471 85.5327L99.1644 86.039L100.243 86.5809L101.383 87.1608L102.585 87.7807L103.849 88.4428L105.173 89.1491L106.555 89.9014L107.994 90.7013L109.487 91.5501L111.03 92.4489L112.618 93.3982L114.245 94.3979L115.904 95.4478L117.588 96.5464L119.287 97.6921L120.992 98.8821L122.69 100.113L124.37 101.38L126.018 102.678L127.62 104.001L129.161 105.341L130.626 106.69L132 108.04L133.266 109.38L134.41 110.7L135.417 111.989L136.274 113.237L136.97 114.431L137.493 115.562L137.835 116.619L137.991 117.59L137.955 118.469L137.727 119.246L137.307 119.914L136.699 120.469L135.91 120.906L134.947 121.223L133.82 121.419L132.543 121.496L131.129 121.456L129.592 121.302L127.949 121.041L126.215 120.678L124.408 120.221L122.544 119.677L120.638 119.057L118.707 118.368L116.764 117.619L114.823 116.821L112.896 115.983L110.994 115.112L109.126 114.218L107.302 113.309L105.528 112.392L103.809 111.473L102.151 110.559L100.557 109.656L99.0302 108.768L97.5713 107.899L96.1816 107.053L94.8613 106.234L93.6099 105.444L92.4264 104.685L91.3095 103.958L90.2575 103.265L89.2685 102.608L88.3403 101.986L87.4706 101.4L86.657 100.85L85.8971 100.338L85.1884 99.8616L84.5286 99.422L83.9153 99.0189L83.3462 98.6521L82.8191 98.3216L82.3319 98.0271L81.8826 97.7689L81.4694 97.5468L81.0904 97.3611L80.7442 97.2121L80.4292 97.1004L80.1442 97.0265L79.8878 96.9914L79.6591 96.9962L79.4572 97.0423L79.2813 97.1314L79.1303 97.2647L79.0023 97.4419L78.8955 97.6632L78.8085 97.9286L78.7397 98.2387L78.6879 98.5942L78.6519 98.996L78.6306 99.4453L78.6229 99.9434L78.6278 100.492L78.6444 101.092L78.6717 101.747L78.7085 102.457L78.7541 103.225L78.8072 104.052L78.8667 104.942L78.9315 105.896L79.0003 106.916L79.0717 108.004L79.1441 109.162L79.216 110.392L79.2855 111.694L79.3508 113.071L79.4098 114.522L79.4602 116.048L79.4997 117.648L79.5258 119.32L79.5358 121.063L79.5268 122.873L79.496 124.746L79.4405 126.678L79.3572 128.66L79.2433 130.686L79.0957 132.746L78.9118 134.829L78.689 136.925L78.425 139.018L78.1179 141.095L77.7661 143.139L77.3687 145.135L76.9252 147.064L76.4357 148.908L75.9013 150.648L75.3234 152.268L74.7044 153.748L74.0474 155.073L73.3562 156.226L72.6351 157.193L71.8894 157.963L71.1245 158.525L70.3464 158.872L69.5615 159L68.776 158.907L67.9964 158.594L67.229 158.066L66.4798 157.329L65.7545 156.393L65.0582 155.268L64.3955 153.97L63.7702 152.513L63.1856 150.915L62.6441 149.192L62.1474 147.363L61.6965 145.447L61.2918 143.461L60.9328 141.423L60.6186 139.35L60.3479 137.259L60.1187 135.163L59.9287 133.076L59.7756 131.012L59.6565 128.98L59.5685 126.99L59.5088 125.05L59.4743 123.167L59.462 121.347L59.4691 119.593L59.4928 117.909L59.5304 116.298L59.5792 114.76L59.637 113.297L59.7014 111.909L59.7704 110.594L59.8421 109.353L59.9145 108.183L59.9862 107.084L60.0554 106.054L60.121 105.089L60.1814 104.19L60.2356 103.352L60.2824 102.575L60.3208 101.856L60.3496 101.193L60.368 100.584L60.3748 100.027L60.3692 99.5213L60.3501 99.0643L60.3165 98.655L60.2673 98.2922L60.2014 97.975L60.1173 97.7025L60.0138 97.4742L59.8893 97.29L59.742 97.1496L59.5702 97.0535L59.3725 97.0007L59.1481 96.9895L58.8962 97.0183L58.6158 97.0861L58.3057 97.1918L57.9645 97.3349L57.5909 97.5148L57.1833 97.7311L56.7398 97.9836L56.2588 98.2722L55.7382 98.597L55.1759 98.958L54.5698 99.3554L53.9176 99.7891L53.2169 100.259L52.4653 100.766L51.6604 101.31L50.7998 101.89L49.881 102.506L48.9018 103.158L47.86 103.845L46.7536 104.567L45.5808 105.321L44.3403 106.106L43.031 106.921L41.6523 107.763L40.2045 108.628L38.6881 109.513L37.1047 110.414L35.4568 111.327L33.7477 112.245L31.9819 113.163L30.1651 114.074L28.304 114.971L26.4068 115.846L24.483 116.69L22.5433 117.495L20.5998 118.252L18.6656 118.951L16.755 119.583L14.8831 120.14L13.0659 120.611L11.3196 120.99L9.66092 121.268L8.10609 121.439L6.67107 121.498L5.37097 121.439L4.21977 121.262L3.22995 120.964L2.41219 120.546L1.77516 120.01L1.32523 119.359L1.06636 118.6L1 117.737L1.12507 116.779L1.438 115.736L1.93286 114.616L2.60151 113.431L3.43388 112.191L4.41819 110.907L5.54126 109.591L6.78887 108.254L8.14604 106.905L9.59738 105.555L11.1274 104.213L12.7207 102.887L14.3624 101.585L16.0381 100.312L17.7345 99.0755L19.4389 97.8788L21.1398 96.7258L22.8269 95.6195L24.4908 94.5618L26.1234 93.554L27.7178 92.5967L29.268 91.6899L30.7691 90.8332L32.217 90.0255L33.6088 89.2657L34.942 88.5523L36.2151 87.8832L37.427 87.2567L38.5772 86.6707L39.6656 86.1229L40.6927 85.6111L41.6589 85.1331L42.5653 84.6867L43.4127 84.2696L44.2024 83.8798L44.9357 83.5151L45.6137 83.1734L46.2377 82.853L46.809 82.5517L47.3287 82.2679L47.7979 81.9998L48.2174 81.7456L48.5882 81.5039L48.9108 81.2728L49.1855 81.0511L49.4127 80.837L49.5921 80.6293L49.7236 80.4263L49.8065 80.2266L49.8398 80.0286L49.8226 79.831L49.7553 79.632L49.6393 79.4302L49.475 79.2241L49.263 79.0123L49.0035 78.7931L48.6962 78.5652L48.3408 78.327L47.9369 78.077L47.4836 77.8135L46.9801 77.5349L46.4253 77.2394L45.8182 76.9252L45.1576 76.5905L44.4421 76.2334L43.6705 75.8518L42.8416 75.4437L41.9541 75.0068L41.007 74.5391L39.9994 74.0383L38.9306 73.5022L37.8 72.9286L36.6078 72.3152L35.3541 71.66L34.0399 70.9608L32.6666 70.216L31.2362 69.4237L29.7517 68.5828L28.2166 67.692L26.6357 66.7508L25.0146 65.759L23.3598 64.7171L21.6792 63.6261L19.9816 62.4878L18.2771 61.3046L16.5769 60.0801L14.8931 58.8184L13.2391 57.5249L11.6287 56.2056L10.0769 54.8678L8.59886 53.5194L7.21001 52.1693L5.92585 50.8271L4.76152 49.5032L3.73153 48.2082L2.84941 46.9531L2.12743 45.7493L1.57623 44.6076L1.20459 43.5387L1.01918 42.5527L1.02433 41.6589L1.22191 40.8654L1.6113 40.1793L2.18931 39.6063L2.95034 39.1503L3.88642 38.814L4.98749 38.5983L6.24161 38.5025L7.63525 38.5244L9.15361 38.6601L10.781 38.9048L12.5012 39.2521L14.2976 39.6948L16.1538 40.2251L18.0537 40.8341L19.982 41.5129L21.9241 42.2523L23.8663 43.0429L25.7964 43.8757L27.7032 44.7417L29.5767 45.6324L31.4085 46.5398L33.1912 47.4564L34.9189 48.3753L36.5867 49.2903L38.1909 50.1957L39.7288 51.0866L41.1986 51.9586L42.5994 52.808L43.9307 53.6315L45.1931 54.4266L46.3873 55.191L47.5147 55.923L48.5769 56.6211L49.5758 57.2844L50.5135 57.9121L51.3924 58.5037L52.2148 59.0589L52.9831 59.5775L53.6997 60.0594L54.3672 60.5048L54.9877 60.9137L55.5637 61.2863L56.0974 61.6226L56.5908 61.9228L57.046 62.1868L57.4649 62.4147L57.8491 62.6062L58.2005 62.761L58.5203 62.8787L58.8101 62.9587L59.0709 63L59.3039 63.0017L59.5101 62.9623L59.6901 62.8802L59.8449 62.7539L59.9765 62.5836L60.0865 62.3694L60.1766 62.111L60.2482 61.8081L60.3026 61.4599L60.3411 61.0655L60.3646 60.6239L60.3744 60.1336L60.3714 59.5933L60.3566 59.0012L60.331 58.3556L60.2956 57.6545L60.2514 56.896L60.1994 56.078L60.1408 55.1984L60.0768 54.255L60.0085 53.2457L59.9375 52.1686L59.8651 51.0218L59.7931 49.8035L59.723 48.5125L59.6569 47.1477L59.5968 45.7083L59.5448 44.1944L59.5034 42.6063L59.475 40.9454L59.4623 39.2136L59.4681 37.4139L59.4952 35.5504L59.5466 33.628L59.6252 31.6533L59.7341 29.6337L59.8761 27.5785L60.054 25.4978L60.2705 23.4037L60.5278 21.3091L60.8279 19.2286L61.1725 17.1778L61.5626 15.1734L61.9988 13.2328L62.481 11.3741L63.0083 9.6156L63.5794 7.97556L64.1921 6.47181L64.8433 5.12141L65.5293 3.94021L66.2459 2.94253L66.9881 2.14076L67.7503 1.54508L68.5267 1.16317L69.311 1L70.0968 1.05772L70.8778 1.33556L71.6476 1.8299L72.4 2.53432L73.1295 3.43982L73.8307 4.53501L74.4991 5.80646L75.1305 7.239L75.7218 8.8161L76.2703 10.5203L76.7742 12.3334L77.2324 14.2371L77.6445 16.2133L78.0108 18.244L78.332 20.3124L78.6095 22.4021L78.8452 24.4982L79.0412 26.5868L79.2001 28.6556L79.3244 30.6934L79.4171 32.6906L79.4812 34.6388L79.5195 36.5312L79.5351 38.362L79.5309 40.1266L79.5096 41.8217L79.4741 43.4448L79.4269 44.9943L79.3704 46.4693L79.3069 47.8697L79.2384 49.1959L79.1671 50.4487L79.0947 51.6294L79.0228 52.7396L78.9531 53.7811L78.8868 54.7557L78.8255 55.6655L78.7702 56.5127L78.7222 57.2994L78.6824 58.0276L78.652 58.6995L78.6319 59.3169L78.6232 59.8818L78.6267 60.3958L78.6436 60.8605L78.6748 61.2773L78.7214 61.6474L78.7846 61.9719L78.8657 62.2515L78.966 62.4867L79.0871 62.678L79.2306 62.8253L79.3984 62.9285L79.592 62.9881L79.812 63.0058L80.0595 62.9833L80.3353 62.9217L80.6406 62.8219L80.9767 62.6847L81.345 62.5107L81.7471 62.3002L82.1847 62.0534L82.6597 61.7705L83.1738 61.4515L83.7293 61.0963L84.3283 60.7047L84.9731 60.2768L85.6659 59.8123L86.4092 59.3113L87.2054 58.7736L88.057 58.1993L88.9664 57.5888L89.9358 56.9425L90.9675 56.2608L92.0635 55.5449L93.2256 54.7958L94.4552 54.0151L95.7536 53.2049L97.1211 52.3675L98.558 51.5058L100.064 50.6235L101.636 49.7244L103.274 48.8133L104.974 47.8956L106.731 46.977L108.54 46.0644L110.395 45.1647L112.287 44.2858L114.207 43.4361L116.145 42.6242L118.089 41.8592L120.025 41.1503L121.941 40.5068L123.82 39.9378L125.647 39.4522L127.405 39.0583L129.079 38.7638L130.652 38.5753L132.107 38.4985L133.429 38.5377L134.605 38.696L135.621 38.9746L136.467 39.3736L137.133 39.8911L137.614 40.5238L137.903 41.2668L138 42.1136L137.905 43.0566L137.622 44.0871L137.156 45.1954L136.514 46.3709L135.707 47.6028L134.746 48.8801L133.644 50.1916L132.415 51.5264L131.075 52.8739L129.637 54.2243L128.119 55.5683L126.534 56.8973L124.899 58.204L123.228 59.4816L121.534 60.7245L119.83 61.9279L118.128 63.088L116.438 64.2019L114.77 65.2674L113.132 66.2832L111.531 67.2486L109.973 68.1634L108.464 69.0281L107.008 69.8435L105.607 70.6108L104.264 71.3315L102.981 72.0075L101.76 72.6406L100.6 73.233L99.5013 73.7867L98.4645 74.3041L97.4886 74.7873L96.5728 75.2386L95.716 75.6602L94.9172 76.0543L94.1751 76.4228L93.4884 76.768L92.8558 77.0917L92.2762 77.3959L91.7484 77.6823L91.2712 77.9529L90.8438 78.2091L90.4653 78.4528L90.1351 78.6854L89.8527 78.9085L89.618 79.1237L89.4309 79.3324L89.2918 79.536L89.2011 79.7362L89.1598 79.9343L89.1572 79.9972Z" stroke="#285943" stroke-width="2"/>
<path fill-rule="evenodd" clip-rule="evenodd" d="M83.7048 79.998L83.7231 80.1407L83.7774 80.2845L83.8668 80.4305L83.991 80.5798L84.1497 80.7334L84.3428 80.8925L84.5703 81.058L84.8327 81.2312L85.1302 81.413L85.4635 81.6048L85.8332 81.8077L86.2401 82.023L86.6849 82.2519L87.1685 82.4958L87.692 82.7562L88.2561 83.0345L88.8617 83.3322L89.5099 83.6508L90.2012 83.992L90.9363 84.3573L91.7158 84.7483L92.5398 85.1666L93.4085 85.6139L94.3214 86.0916L95.278 86.6012L96.2771 87.144L97.3171 87.7212L98.3959 88.3336L99.5107 88.9821L100.658 89.667L101.834 90.3884L103.033 91.1458L104.25 91.9386L105.478 92.7652L106.71 93.6238L107.937 94.5118L109.151 95.4261L110.342 96.3626L111.499 97.317L112.613 98.2839L113.672 99.2575L114.664 100.231L115.579 101.198L116.405 102.15L117.133 103.081L117.753 103.981L118.256 104.843L118.634 105.659L118.881 106.421L118.993 107.122L118.967 107.756L118.802 108.316L118.499 108.799L118.06 109.199L117.49 109.514L116.794 109.743L115.98 109.885L115.057 109.94L114.035 109.911L112.924 109.8L111.737 109.612L110.484 109.35L109.178 109.02L107.831 108.628L106.454 108.18L105.058 107.683L103.654 107.143L102.252 106.567L100.859 105.962L99.4845 105.334L98.135 104.689L96.8167 104.033L95.5345 103.371L94.2927 102.708L93.0946 102.049L91.9429 101.397L90.8393 100.756L89.7851 100.13L88.7809 99.5196L87.8268 98.9285L86.9225 98.3583L86.0673 97.8104L85.2602 97.2861L84.5 96.7863L83.7853 96.3118L83.1145 95.863L82.486 95.4403L81.8981 95.044L81.349 94.674L80.8369 94.3305L80.3601 94.0133L79.9169 93.7225L79.5056 93.4579L79.1247 93.2193L78.7727 93.0069L78.448 92.8206L78.1494 92.6603L77.8756 92.5264L77.6254 92.4189L77.3978 92.3383L77.1918 92.285L77.0065 92.2596L76.8413 92.2631L76.6954 92.2963L76.5682 92.3606L76.4591 92.4568L76.3666 92.5847L76.2895 92.7443L76.2266 92.9358L76.1769 93.1596L76.1394 93.416L76.1134 93.706L76.098 94.0302L76.0925 94.3896L76.096 94.7853L76.108 95.2186L76.1277 95.6907L76.1543 96.203L76.1873 96.757L76.2256 97.3542L76.2687 97.9961L76.3155 98.6842L76.3652 99.4201L76.4167 100.205L76.4691 101.041L76.521 101.928L76.5713 102.868L76.6185 103.861L76.6611 104.908L76.6975 106.009L76.7261 107.164L76.7449 108.37L76.7521 109.628L76.7456 110.934L76.7234 112.285L76.6833 113.679L76.6231 115.109L76.5408 116.571L76.4341 118.057L76.3013 119.561L76.1403 121.072L75.9495 122.583L75.7275 124.081L75.4733 125.556L75.1861 126.996L74.8656 128.388L74.512 129.718L74.1257 130.974L73.7081 132.143L73.2608 133.211L72.7861 134.166L72.2866 134.998L71.7655 135.696L71.2266 136.251L70.6739 136.657L70.1117 136.908L69.5444 137L68.9768 136.933L68.4134 136.707L67.8589 136.326L67.3175 135.794L66.7934 135.119L66.2902 134.308L65.8113 133.371L65.3595 132.32L64.937 131.166L64.5457 129.923L64.1868 128.604L63.861 127.221L63.5685 125.788L63.3091 124.318L63.0821 122.822L62.8864 121.313L62.7208 119.801L62.5835 118.296L62.4729 116.806L62.3868 115.34L62.3232 113.904L62.2801 112.505L62.2551 111.146L62.2463 109.833L62.2514 108.567L62.2685 107.352L62.2957 106.19L62.331 105.08L62.3727 104.024L62.4193 103.023L62.4692 102.074L62.5209 101.179L62.5733 100.335L62.625 99.5418L62.6751 98.7982L62.7225 98.1025L62.7661 97.4534L62.8053 96.8492L62.8391 96.2884L62.8668 95.7695L62.8877 95.2911L62.9009 94.8518L62.9059 94.4501L62.9018 94.085L62.8881 93.7553L62.8638 93.46L62.8282 93.1982L62.7805 92.9693L62.7198 92.7727L62.645 92.608L62.555 92.475L62.4486 92.3738L62.3245 92.3044L62.1816 92.2663L62.0194 92.2582L61.8374 92.279L61.6348 92.3279L61.4107 92.4042L61.1642 92.5075L60.8942 92.6372L60.5996 92.7933L60.2792 92.9755L59.9316 93.1838L59.5553 93.4181L59.149 93.6786L58.711 93.9653L58.2397 94.2782L57.7334 94.6175L57.1902 94.9833L56.6086 95.3755L55.9867 95.7939L55.3228 96.2386L54.6152 96.709L53.8623 97.2048L53.0628 97.7253L52.2153 98.2695L51.3189 98.8363L50.3727 99.4241L49.3765 100.031L48.3302 100.655L47.2345 101.294L46.0903 101.945L44.8995 102.603L43.6644 103.266L42.3884 103.928L41.0755 104.585L39.7306 105.232L38.3597 105.864L36.9695 106.473L35.5678 107.054L34.1634 107.6L32.7656 108.104L31.385 108.56L30.0323 108.962L28.7191 109.302L27.4573 109.575L26.2586 109.776L25.1351 109.899L24.0981 109.941L23.1586 109.899L22.3267 109.771L21.6114 109.556L21.0205 109.255L20.5602 108.868L20.235 108.399L20.048 107.85L20 107.228L20.0904 106.537L20.3165 105.784L20.6741 104.976L21.1573 104.121L21.7588 103.226L22.4701 102.3L23.2816 101.351L24.1832 100.386L25.1639 99.4127L26.2127 98.4387L27.3183 97.4703L28.4697 96.5136L29.656 95.5738L30.867 94.6558L32.0928 93.7633L33.3245 92.8999L34.5536 92.068L35.7727 91.2698L36.9751 90.5066L38.1549 89.7795L39.307 89.0888L40.4272 88.4345L41.5119 87.8163L42.5583 87.2336L43.564 86.6854L44.5274 86.1706L45.4474 85.6879L46.3231 85.2359L47.1543 84.813L47.9409 84.4178L48.683 84.0485L49.3813 83.7036L50.0362 83.3815L50.6486 83.0806L51.2193 82.7993L51.7491 82.5362L52.2391 82.2897L52.69 82.0585L53.1028 81.8411L53.4784 81.6364L53.8174 81.4429L54.1206 81.2595L54.3886 81.0851L54.6217 80.9184L54.8202 80.7584L54.9843 80.6039L55.114 80.454L55.209 80.3076L55.2689 80.1635L55.293 80.0207L55.2805 79.8781L55.232 79.7345L55.1481 79.5889L55.0294 79.4402L54.8762 79.2873L54.6886 79.1292L54.4666 78.9648L54.2098 78.7929L53.9179 78.6125L53.5903 78.4224L53.2265 78.2213L52.8256 78.0081L52.3869 77.7815L51.9095 77.54L51.3924 77.2823L50.8349 77.007L50.2359 76.7125L49.5946 76.3973L48.9102 76.0599L48.1821 75.6986L47.4097 75.3117L46.5927 74.8979L45.7312 74.4553L44.8252 73.9825L43.8755 73.4781L42.8831 72.9406L41.8495 72.369L40.7768 71.7622L39.6675 71.1195L38.5251 70.4404L37.3536 69.7249L36.1578 68.9731L34.9433 68.1859L33.7166 67.3646L32.4849 66.5109L31.2563 65.6274L30.0396 64.7171L28.8443 63.7838L27.6806 62.8319L26.5592 61.8666L25.4911 60.8937L24.4875 59.9196L23.5596 58.9512L22.7182 57.9959L21.9739 57.0616L21.3364 56.1561L20.8147 55.2875L20.4164 54.4637L20.1478 53.6925L20.0139 52.9811L20.0176 52.3361L20.1604 51.7636L20.4417 51.2686L20.8594 50.8552L21.4094 50.5262L22.0858 50.2836L22.8815 50.1279L23.7877 50.0588L24.7948 50.0745L25.892 50.1725L27.068 50.349L28.3111 50.5996L29.6092 50.9191L30.9505 51.3016L32.3235 51.741L33.7169 52.2308L35.1203 52.7643L36.5239 53.3348L37.9186 53.9356L39.2964 54.5605L40.6503 55.2031L41.974 55.8578L43.2622 56.5192L44.5107 57.1822L45.7159 57.8424L46.8752 58.4956L47.9865 59.1384L49.0487 59.7676L50.0609 60.3804L51.0229 60.9746L51.9351 61.5483L52.7981 62.0998L53.6128 62.628L54.3804 63.1317L55.1022 63.6103L55.7799 64.0632L56.415 64.49L57.0092 64.8906L57.5644 65.2648L58.0823 65.6125L58.5646 65.9339L59.013 66.2289L59.4293 66.4977L59.8149 66.7404L60.1715 66.9569L60.5004 67.1474L60.8031 67.3118L61.0808 67.45L61.3346 67.5617L61.5658 67.6467L61.7752 67.7044L61.9637 67.7342L62.132 67.7354L62.281 67.707L62.4111 67.6477L62.523 67.5566L62.618 67.4338L62.6976 67.2792L62.7627 67.0928L62.8144 66.8742L62.8537 66.623L62.8815 66.3384L62.8985 66.0198L62.9056 65.666L62.9034 65.2761L62.8928 64.8489L62.8743 64.3831L62.8487 63.8773L62.8167 63.33L62.7792 62.7398L62.7368 62.1051L62.6905 61.4245L62.6412 60.6963L62.5899 59.9191L62.5376 59.0917L62.4855 58.2127L62.4349 57.2812L62.3871 56.2964L62.3437 55.2579L62.3061 54.1656L62.2762 53.0198L62.2557 51.8214L62.2465 50.5718L62.2507 49.2733L62.2702 47.9287L62.3074 46.5417L62.3642 45.1169L62.4429 43.6598L62.5455 42.1769L62.6741 40.6757L62.8305 39.1647L63.0164 37.6534L63.2333 36.1523L63.4823 34.6726L63.7642 33.2264L64.0794 31.8262L64.4278 30.4851L64.8089 29.2163L65.2216 28.033L65.6643 26.948L66.1349 25.9737L66.6307 25.1214L67.1485 24.4016L67.6848 23.8231L68.2356 23.3933L68.7967 23.1177L69.3634 23L69.9313 23.0416L70.4956 23.2421L71.0519 23.5988L71.5956 24.107L72.1228 24.7604L72.6295 25.5506L73.1125 26.468L73.5688 27.5016L73.9961 28.6395L74.3924 29.8691L74.7565 31.1772L75.0877 32.5508L75.3855 33.9767L75.6501 35.4419L75.8822 36.9342L76.0828 38.442L76.2531 39.9544L76.3948 41.4614L76.5095 42.954L76.5994 44.4244L76.6664 45.8654L76.7127 47.2711L76.7404 48.6364L76.7516 49.9574L76.7486 51.2306L76.7332 52.4537L76.7076 53.6247L76.6735 54.7427L76.6326 55.8069L76.5867 56.8174L76.5373 57.7742L76.4857 58.6782L76.4334 59.5301L76.3815 60.3311L76.3311 61.0826L76.2832 61.7858L76.2389 62.4422L76.1989 63.0535L76.1642 63.6211L76.1355 64.1465L76.1135 64.6313L76.099 65.0768L76.0927 65.4843L76.0952 65.8552L76.1074 66.1905L76.13 66.4912L76.1637 66.7583L76.2093 66.9924L76.2679 67.1941L76.3404 67.3639L76.4279 67.5019L76.5316 67.6082L76.6529 67.6826L76.7927 67.7256L76.9518 67.7384L77.1306 67.7221L77.3299 67.6777L77.5505 67.6057L77.7934 67.5067L78.0595 67.3811L78.3501 67.2293L78.6664 67.0512L79.0095 66.8471L79.3811 66.6169L79.7825 66.3606L80.2154 66.0781L80.6813 65.7693L81.1819 65.4342L81.7191 65.0727L82.2944 64.6847L82.9098 64.2704L83.5669 63.8299L84.2675 63.3635L85.013 62.8717L85.805 62.3552L86.6448 61.8147L87.5334 61.2514L88.4716 60.6668L89.4598 60.0626L90.4981 59.4409L91.5861 58.8043L92.7226 58.1556L93.9062 57.4982L95.1344 56.836L96.4041 56.1733L97.7115 55.5148L99.0516 54.8657L100.419 54.2316L101.806 53.6185L103.207 53.0327L104.611 52.4807L106.011 51.9692L107.395 51.5049L108.753 51.0944L110.073 50.744L111.344 50.4598L112.554 50.2473L113.69 50.1113L114.741 50.0559L115.697 50.0842L116.547 50.1983L117.281 50.3994L117.892 50.6873L118.374 51.0607L118.721 51.5172L118.93 52.0532L119 52.6642L118.932 53.3447L118.727 54.0882L118.39 54.8878L117.926 55.736L117.343 56.6248L116.649 57.5464L115.852 58.4927L114.964 59.4557L113.995 60.428L112.957 61.4024L111.859 62.372L110.715 63.331L109.533 64.2738L108.325 65.1956L107.101 66.0923L105.87 66.9606L104.64 67.7977L103.419 68.6014L102.213 69.3702L101.03 70.1031L99.8728 70.7996L98.7472 71.4597L97.6566 72.0836L96.604 72.6719L95.5917 73.2255L94.6215 73.7455L93.6945 74.2333L92.8117 74.6901L91.9734 75.1175L91.1798 75.517L90.4306 75.8903L89.7253 76.239L89.0635 76.5646L88.4444 76.8688L87.8672 77.1531L87.3309 77.419L86.8347 77.668L86.3776 77.9016L85.9587 78.1211L85.5773 78.3278L85.2325 78.5229L84.9236 78.7078L84.6501 78.8836L84.4115 79.0515L84.2075 79.2125L84.0378 79.3677L83.9026 79.5183L83.8021 79.6652L83.7366 79.8096L83.7067 79.9526L83.7048 79.998Z" fill="#285943"/>
</svg>
