<svg width="77" height="77" viewBox="0 0 77 77" fill="none" xmlns="http://www.w3.org/2000/svg">
<circle cx="38.5" cy="38.5" r="38.5" fill="#8CD790"/>
<path d="M24.1917 37.8322C25.611 36.8978 27.2957 36.4503 28.9917 36.5572C30.6876 36.6641 32.3028 37.3196 33.5936 38.4248C34.8845 39.53 35.7809 41.025 36.1476 42.6843C36.5144 44.3436 36.3317 46.0771 35.627 47.6234C34.9223 49.1697 33.7339 50.445 32.241 51.2567C30.7481 52.0685 29.0317 52.3728 27.3508 52.1238C25.6698 51.8747 24.1154 51.0857 22.9221 49.8759C21.7288 48.6661 20.9612 47.1011 20.7352 45.4168C20.0204 41.9056 19.7423 37.6853 21.1406 33.8646C22.6406 29.7717 25.9659 26.4151 31.9212 24.8563C32.4175 24.7423 32.9386 24.826 33.3742 25.0898C33.8097 25.3536 34.1254 25.7766 34.2543 26.2692C34.3832 26.7618 34.3151 27.2853 34.0646 27.7286C33.814 28.1718 33.4006 28.5001 32.9121 28.6437C28.0946 29.9049 25.8425 32.4233 24.8183 35.212C24.5148 36.0443 24.3092 36.9236 24.1917 37.8322Z" fill="white"/>
<path d="M44.1917 37.8322C45.611 36.8978 47.2957 36.4503 48.9917 36.5572C50.6876 36.6641 52.3028 37.3196 53.5936 38.4248C54.8845 39.53 55.7809 41.025 56.1476 42.6843C56.5144 44.3436 56.3317 46.0771 55.627 47.6234C54.9223 49.1697 53.7339 50.445 52.241 51.2567C50.7481 52.0685 49.0317 52.3728 47.3508 52.1238C45.6698 51.8747 44.1154 51.0857 42.9221 49.8759C41.7288 48.6661 40.9612 47.1011 40.7352 45.4168C40.0204 41.9056 39.7423 37.6853 41.1406 33.8646C42.6406 29.7717 45.9659 26.4151 51.9212 24.8563C52.4175 24.7423 52.9386 24.826 53.3742 25.0898C53.8097 25.3536 54.1254 25.7766 54.2543 26.2692C54.3832 26.7618 54.3151 27.2853 54.0646 27.7286C53.814 28.1718 53.4006 28.5001 52.9121 28.6437C48.0946 29.9049 45.8425 32.4233 44.8183 35.212C44.5148 36.0443 44.3092 36.9236 44.1917 37.8322Z" fill="white"/>
</svg>
