<svg width="369" height="369" viewBox="0 0 369 369" fill="none" xmlns="http://www.w3.org/2000/svg">
<path d="M276.75 92.25C252.284 67.7838 219.1 54.0388 184.5 54.0388C149.9 54.0388 116.716 67.7838 92.25 92.25C67.7838 116.716 54.0388 149.9 54.0388 184.5C54.0388 219.1 67.7838 252.284 92.25 276.75L184.5 184.5L276.75 92.25Z" fill="#8CD790"/>
<path d="M258.262 109.507C238.481 89.7264 211.653 78.614 183.68 78.614C155.706 78.614 128.879 89.7264 109.098 109.507C89.3179 129.287 78.2055 156.115 78.2055 184.088C78.2055 212.062 89.3179 238.89 109.098 258.67L183.68 184.088L258.262 109.507Z" fill="#285943"/>
</svg>
